<svg width="47" height="47" viewBox="0 0 47 47" fill="none" xmlns="http://www.w3.org/2000/svg">
<g clip-path="url(#clip0_7_139)">
<path d="M28.8714 0C19.1385 0 11.2464 7.89209 11.2464 17.625H5.37137L12.9893 25.2429L13.1264 25.5171L21.0381 17.625H15.163C15.163 10.0463 21.2926 3.91667 28.8714 3.91667C36.4501 3.91667 42.5797 10.0463 42.5797 17.625C42.5797 25.2038 36.4501 31.3334 28.8714 31.3334C25.0918 31.3334 21.6647 29.7863 19.1972 27.2992L16.4164 30.08C19.6085 33.2721 23.9951 35.25 28.8714 35.25C38.6043 35.25 46.4964 27.3579 46.4964 17.625C46.4964 7.89209 38.6043 0 28.8714 0ZM26.9131 9.79168V19.5834L35.2947 24.5575L36.7047 22.1879L29.8506 18.1146V9.79168H26.9131Z" fill="black" fill-opacity="0.65"/>
</g>
<defs>
<clipPath id="clip0_7_139">
<rect width="46.0448" height="46.0448" fill="white" transform="scale(1.02075)"/>
</clipPath>
</defs>
</svg>
