<svg width="31" height="31" viewBox="0 0 31 31" fill="none" xmlns="http://www.w3.org/2000/svg">
<path d="M0 0.0386908V30.9913H30.9526V21.7829C31.0158 21.5027 31.0158 21.2119 30.9526 20.9317V0H0V0.0386908ZM3.86908 3.90777H27.0835V19.3841H21.2799C21.1641 19.3736 21.0475 19.3736 20.9317 19.3841C20.4186 19.4303 19.9449 19.6784 19.6148 20.0738C19.2846 20.4693 19.1251 20.9797 19.1713 21.4927C19.2175 22.0058 19.4656 22.4795 19.861 22.8097C20.2565 23.1398 20.7669 23.2993 21.2799 23.2532H27.0835V27.1222H3.86908V3.90777ZM13.5418 7.77685C10.3304 7.77685 7.73816 10.3691 7.73816 13.5805C7.73816 17.4495 13.5418 23.2532 13.5418 23.2532C13.5418 23.2532 19.3454 17.4495 19.3454 13.5805C19.3454 10.3691 16.7531 7.77685 13.5418 7.77685ZM13.5418 11.6459C14.6251 11.6459 15.4763 12.4971 15.4763 13.5805C15.4763 14.6638 14.6251 15.515 13.5418 15.515C12.4584 15.515 11.6072 14.6638 11.6072 13.5805C11.6072 12.4971 12.4584 11.6459 13.5418 11.6459Z" fill="black"/>
</svg>
