<svg width="31" height="31" viewBox="0 0 31 31" fill="none" xmlns="http://www.w3.org/2000/svg">
<g filter="url(#filter0_d_65_417)">
<path d="M13.4408 0.0384023C6.02917 0.0384023 0 6.06757 0 13.4792C0 20.8909 6.02917 26.92 13.4408 26.92C15.7066 26.92 17.9339 26.3824 19.8156 25.3455C19.9663 25.5269 20.1334 25.694 20.3148 25.8448L24.1551 29.685C24.5097 30.084 24.9421 30.4063 25.4257 30.6322C25.9094 30.858 26.4341 30.9826 26.9677 30.9983C27.5013 31.014 28.0324 30.9205 28.5285 30.7235C29.0247 30.5265 29.4753 30.2302 29.8527 29.8527C30.2302 29.4753 30.5265 29.0247 30.7235 28.5285C30.9205 28.0324 31.014 27.5013 30.9983 26.9677C30.9826 26.4341 30.858 25.9094 30.6322 25.4257C30.4063 24.9421 30.084 24.5097 29.685 24.1551L25.8448 20.3148C25.6577 20.1277 25.4518 19.9604 25.2303 19.8156C26.2672 17.9339 26.92 15.745 26.92 13.4408C26.92 6.02917 20.8909 0 13.4792 0L13.4408 0.0384023ZM13.4408 3.87864C18.7787 3.87864 23.0414 8.14129 23.0414 13.4792C23.0414 16.0138 22.1197 18.3563 20.5068 20.0844C20.4684 20.1228 20.43 20.1612 20.3916 20.1996C20.2102 20.3504 20.0431 20.5175 19.8924 20.6989C18.2027 22.235 15.8986 23.1182 13.4024 23.1182C8.06449 23.1182 3.80183 18.8555 3.80183 13.5176C3.80183 8.1797 8.06449 3.91704 13.4024 3.91704L13.4408 3.87864Z" fill="#162E82"/>
</g>
<defs>
<filter id="filter0_d_65_417" x="-4.08347" y="0" width="39.1669" height="39.1669" filterUnits="userSpaceOnUse" color-interpolation-filters="sRGB">
<feFlood flood-opacity="0" result="BackgroundImageFix"/>
<feColorMatrix in="SourceAlpha" type="matrix" values="0 0 0 0 0 0 0 0 0 0 0 0 0 0 0 0 0 0 127 0" result="hardAlpha"/>
<feOffset dy="4"/>
<feGaussianBlur stdDeviation="2"/>
<feComposite in2="hardAlpha" operator="out"/>
<feColorMatrix type="matrix" values="0 0 0 0 0 0 0 0 0 0 0 0 0 0 0 0 0 0 0.25 0"/>
<feBlend mode="normal" in2="BackgroundImageFix" result="effect1_dropShadow_65_417"/>
<feBlend mode="normal" in="SourceGraphic" in2="effect1_dropShadow_65_417" result="shape"/>
</filter>
</defs>
</svg>
